<?xml version="1.0" standalone="no"?>
<!DOCTYPE svg PUBLIC "-//W3C//DTD SVG 20010904//EN"
 "http://www.w3.org/TR/2001/REC-SVG-20010904/DTD/svg10.dtd">
<svg version="1.0" xmlns="http://www.w3.org/2000/svg"
 width="1280.000000pt" height="1260.000000pt" viewBox="0 0 1280.000000 1260.000000"
 preserveAspectRatio="xMidYMid meet">
<g transform="translate(0.000000,1260.000000) scale(0.100000,-0.100000)"
fill="#000000" stroke="none">
<path d="M6350 12570 c-30 -15 -78 -50 -107 -76 -28 -27 -421 -448 -872 -937
-884 -956 -879 -951 -868 -1043 6 -56 30 -82 86 -95 81 -18 211 27 596 209
105 49 195 88 201 85 25 -9 113 -453 133 -673 15 -156 15 -1396 0 -1476 -14
-75 -71 -197 -155 -332 -90 -144 -124 -217 -124 -271 0 -59 34 -117 87 -148
86 -50 126 -52 1099 -53 569 0 921 4 955 10 121 23 179 75 187 164 5 66 -16
121 -105 272 -93 158 -117 205 -145 294 l-23 75 0 710 c0 811 3 852 86 1205
45 193 57 230 75 230 9 0 118 -38 243 -84 352 -131 471 -163 537 -144 71 19
86 97 32 163 -82 100 -1649 1834 -1687 1867 -50 43 -121 78 -153 77 -13 -1
-48 -14 -78 -29z"/>
<path d="M1983 8195 c-36 -18 -307 -262 -934 -841 -486 -448 -908 -840 -937
-870 -54 -57 -112 -157 -112 -194 0 -27 42 -108 77 -150 35 -42 1872 -1693
1900 -1709 52 -27 114 -2 133 54 21 63 -12 183 -155 567 -42 115 -75 214 -72
221 6 15 297 89 462 116 229 39 327 42 1025 39 l675 -3 80 -28 c44 -15 154
-70 245 -122 91 -52 187 -102 213 -111 100 -34 182 0 224 92 40 87 45 224 40
1137 -3 734 -5 840 -20 902 -40 168 -148 225 -292 156 -33 -15 -105 -57 -160
-91 -127 -81 -263 -144 -339 -159 -40 -7 -267 -11 -705 -11 -773 0 -885 8
-1226 86 -60 13 -132 29 -158 35 -27 6 -51 18 -54 26 -3 8 18 65 47 126 222
472 267 600 240 681 -25 77 -103 98 -197 51z m2675 -2857 c2 -11 -3 -18 -13
-18 -25 0 -56 20 -49 31 10 16 58 6 62 -13z"/>
<path d="M10663 8190 c-21 -13 -36 -32 -44 -59 -24 -81 15 -199 192 -575 55
-116 99 -217 99 -226 0 -17 -39 -29 -260 -76 -310 -67 -306 -67 -1112 -71
-651 -4 -745 -2 -800 12 -87 22 -162 58 -317 155 -161 100 -218 124 -282 118
-60 -6 -104 -38 -133 -96 -50 -101 -51 -120 -51 -1097 0 -841 1 -915 18 -974
30 -110 84 -161 171 -161 60 0 121 25 257 106 140 83 259 140 330 156 41 10
225 13 769 13 634 0 729 -2 835 -18 184 -28 401 -75 568 -123 9 -3 17 -12 17
-19 0 -8 -28 -88 -61 -177 -149 -396 -189 -541 -169 -604 19 -58 82 -82 137
-51 30 17 1827 1632 1886 1696 46 49 87 124 87 160 0 28 -56 132 -92 173 -18
21 -438 411 -933 869 -742 685 -911 836 -960 860 -70 34 -108 36 -152 9z
m-2439 -2845 c0 -5 -16 -18 -35 -27 -29 -15 -36 -16 -48 -4 -26 26 -6 47 41
44 24 -2 43 -7 42 -13z"/>
<path d="M5160 6285 l0 -1145 1225 0 1225 0 0 1145 0 1145 -1225 0 -1225 0 0
-1145z"/>
<path d="M5427 4825 c-38 -8 -89 -26 -113 -40 -119 -70 -113 -184 19 -387 77
-120 131 -221 159 -298 23 -65 23 -66 26 -680 4 -652 -4 -868 -39 -1082 -24
-149 -87 -428 -101 -445 -11 -13 -4 -16 -293 120 -312 147 -430 185 -511 167
-89 -20 -110 -108 -51 -212 34 -59 1684 -1851 1748 -1898 46 -33 124 -70 149
-70 28 0 96 35 146 76 45 36 1691 1862 1711 1897 30 53 4 120 -51 136 -68 18
-191 -15 -555 -151 -117 -43 -220 -78 -229 -76 -19 4 -56 137 -102 358 -56
276 -60 350 -60 1086 0 630 1 675 19 746 22 85 53 150 148 316 77 133 112 214
113 260 0 73 -49 138 -130 169 -42 16 -115 18 -990 20 -768 1 -958 -1 -1013
-12z"/>
</g>
</svg>
